.
 
http://www.scenetime.com    -   SceneTime [ We been having it ] !!!


How come you press harder on a remote control when you know the battery is dead? so you better seed to get speed ;)

        Seed back for speed


...................................NFO:.................................................[img]http://img841.imageshack.us/img841/1175/87d6c6eb.jpg[/img]

[color=blue][size=5][b]Love.Birds.2011.BDRip.XVID.AC3.HQ.Hive-CM8[/b][/size][/color]


[b]Thx Hive

CM8 Doing It Right The First Time :D

Source: Bluray

Video: 720x304 @bitrate 1800 2pass
Audio: English DTS to AC3 5.1 @448
Sample: yes included
Subs: yes english in srt /subs[/b]


[url]http://www.imdb.com/title/tt1636539/[/url]


General
Complete name                    : Love.Birds.2011.BDRip.XVID.AC3.HQ.Hive-CM8.avi
Format                           : AVI
Format/Info                      : Audio Video Interleave
File size                        : 1.61 GiB
Duration                         : 1h 41mn
Overall bit rate                 : 2 257 Kbps
Writing application              : Nandub v1.0rc2
Writing library                  : Nandub build 1853/release

Video
ID                               : 0
Format                           : MPEG-4 Visual
Format profile                   : Advanced Simple@L5
Format settings, BVOP            : 1
Format settings, QPel            : Yes
Format settings, GMC             : No warppoints
Format settings, Matrix          : Default (H.263)
Muxing mode                      : Packed bitstream
Codec ID                         : XVID
Codec ID/Hint                    : XviD
Duration                         : 1h 41mn
Bit rate                         : 1 799 Kbps
Width                            : 720 pixels
Height                           : 304 pixels
Display aspect ratio             : 2.35:1
Frame rate                       : 24.000 fps
Color space                      : YUV
Chroma subsampling               : 4:2:0
Bit depth                        : 8 bits
Scan type                        : Progressive
Compression mode                 : Lossy
Bits/(Pixel*Frame)               : 0.343
Stream size                      : 1.28 GiB (80%)
Writing library                  : XviD 1.2.1 (UTC 2008-12-04)

Audio
ID                               : 1
Format                           : AC-3
Format/Info                      : Audio Coding 3
Mode extension                   : CM (complete main)
Codec ID                         : 2000
Duration                         : 1h 41mn
Bit rate mode                    : Constant
Bit rate                         : 448 Kbps
Channel(s)                       : 6 channels
Channel positions                : Front: L C R, Side: L R, LFE
Sampling rate                    : 48.0 KHz
Bit depth                        : 16 bits
Compression mode                 : Lossy
Stream size                      : 326 MiB (20%)
Alignment                        : Split accross interleaves
Interleave, duration             : 42 ms (1.00 video frame)
Interleave, preload duration     : 500 ms


Rhys Darby	... 	Doug
Sally Hawkins	... 	Holly
Emily Barclay	... 	Brenda
Craig Hall	... 	Craig Watson
Bryan Brown	... 	Dr. Buster


Doug (Rhys Darby) thinks he has the perfect life and is stunned when long term girlfriend 
Susan (Faye Smythe) dumps him. He finds an injured duck and reluctantly decides to nurse it 
better until such time as a new home can be found for it. The task gives him new found motivation 
and propels Doug into a journey of self discovery, where he meets veterinarian Holly (Sally Hawkins). 
Will the duck ever fly again? and will Doug find his perfect life? 


[img]http://img88.imageshack.us/img88/2139/75433597.png[/img]
[img]http://img43.imageshack.us/img43/1769/lollolololololololo.png[/img]
[img]http://img843.imageshack.us/img843/490/lollololololololoo.png[/img]
[img]http://img37.imageshack.us/img37/5015/lollolololololoo.png[/img]
[img]http://img691.imageshack.us/img691/7826/lollololololoo.png[/img]
[img]http://img4.imageshack.us/img4/1365/lollolololoo.png[/img]
[img]http://img585.imageshack.us/img585/8024/lollololoo.png[/img]
[img]http://img135.imageshack.us/img135/7839/lolloloo.png[/img]
[img]http://img837.imageshack.us/img837/8234/lolloo.png[/img]
[img]http://img27.imageshack.us/img27/9301/lolox.png[/img]




Greetz

ViSiON,SANTi,MAGNET,THC,T0XiC,LKRG,FANTASIA-PLAY,FANTASIA-M,IMAGiNE,WBZ,FLAWL3SS,NOVA,
D2U,Vik,Rapeseed,SAFC,goldadvance,MEMORY100,KaN1vE,Unevano,Pinnz,Wayne,cedrict wink,
Mr Hive and all P2P groups 
Great Work Guys :D

FYS


CM8@hushmail.com